<?xml version="1.0" encoding="utf-8"?>
<!-- Generator: Adobe Illustrator 23.0.5, SVG Export Plug-In . SVG Version: 6.00 Build 0)  -->
<svg version="1.1" id="Layer_1" xmlns="http://www.w3.org/2000/svg" xmlns:xlink="http://www.w3.org/1999/xlink" x="0px" y="0px"
	 viewBox="0 0 3456 2592" style="enable-background:new 0 0 3456 2592;" xml:space="preserve">
<style type="text/css">
	.st0{fill:url(#SVGID_1_);}
	.st1{fill:url(#SVGID_2_);}
	.st2{fill:url(#SVGID_3_);}
	.st3{fill:url(#SVGID_4_);}
	.st4{fill:url(#SVGID_5_);}
	.st5{fill:url(#SVGID_6_);}
	.st6{fill:url(#SVGID_7_);}
	.st7{fill:url(#SVGID_8_);}
	.st8{fill:url(#SVGID_9_);}
	.st9{fill:url(#SVGID_10_);}
	.st10{fill:url(#SVGID_11_);}
	.st11{fill:url(#SVGID_12_);}
	.st12{fill:url(#SVGID_13_);}
	.st13{fill:#0D8700;}
	.st14{fill:#0E9C00;}
	.st15{fill:url(#SVGID_14_);}
	.st16{fill:#1592BB;}
	.st17{fill:#1192BC;}
	.st18{fill:#0075A3;}
	.st19{fill:none;}
	.st20{fill:#5D7B33;}
	.st21{fill:#95BD1E;}
	.st22{fill:#0D8400;}
	.st23{fill:#07619F;}
</style>
<g>
	<g>
		<g>
			
				<linearGradient id="SVGID_1_" gradientUnits="userSpaceOnUse" x1="1986.8367" y1="807.839" x2="1861.0287" y2="767.5446" gradientTransform="matrix(0.8708 -0.4917 0.4917 0.8708 -571.9324 947.7728)">
				<stop  offset="0" style="stop-color:#0E9C00"/>
				<stop  offset="0.9956" style="stop-color:#75D800"/>
			</linearGradient>
			<path class="st0" d="M1420.43,696.93c0,0,54.37-20.28,117.88-17.07c0,0-101.52,11.68-148.82,36.48L1420.43,696.93z"/>
			<linearGradient id="SVGID_2_" gradientUnits="userSpaceOnUse" x1="1333.0293" y1="1184.4171" x2="1397.7574" y2="608.7505">
				<stop  offset="0" style="stop-color:#0E9C00"/>
				<stop  offset="0.9956" style="stop-color:#75D800"/>
			</linearGradient>
			<path class="st1" d="M1541.39,645.47c-42.7,10.09-83.56,27.4-120.66,51.33h-0.03c-0.06,0.03-0.12,0.09-0.17,0.11h-0.06
				c-0.11,0.09-0.23,0.14-0.35,0.23c-7.16,4.6-14.18,9.46-21.02,14.64c-0.06,0.03-0.09,0.06-0.14,0.09h-0.06
				c-0.03,0.03-0.06,0.06-0.09,0.06c-16.76,12.51-32.61,26.43-47.33,41.75c-1.47,1.52-2.93,3.08-4.4,4.63v0.03
				c-7.25,7.79-14.18,15.9-20.79,24.36c-14.15,18-26.86,37.5-37.96,58.43c-49.95,94.49-56.85,200.31-27.6,294.94l-27.6,25.42
				l-10.61,9.78c-32.03-100.7-25.13-213.68,28.15-314.46c1.81-3.45,3.68-6.87,5.61-10.24c0.06-0.12,0.11-0.23,0.17-0.35
				C1318.74,736.25,1425.08,665.86,1541.39,645.47z"/>
			
				<linearGradient id="SVGID_3_" gradientUnits="userSpaceOnUse" x1="1880.1632" y1="899.5314" x2="1715.4041" y2="801.0342" gradientTransform="matrix(0.8708 -0.4917 0.4917 0.8708 -571.9324 947.7728)">
				<stop  offset="0" style="stop-color:#0E9C00"/>
				<stop  offset="0.9956" style="stop-color:#75D800"/>
			</linearGradient>
			<polygon class="st2" points="1343.38,758.48 1549.72,749.64 1414.39,772.22 1415.87,862.25 1396.77,776.24 1322.41,783.04 			"/>
			
				<linearGradient id="SVGID_4_" gradientUnits="userSpaceOnUse" x1="2108.9595" y1="824.4967" x2="1949.1254" y2="759.578" gradientTransform="matrix(0.8708 -0.4917 0.4917 0.8708 -571.9324 947.7728)">
				<stop  offset="0" style="stop-color:#0E9C00"/>
				<stop  offset="0.9956" style="stop-color:#75D800"/>
			</linearGradient>
			<path class="st3" d="M1523.4,656.33c9.55-3.71,48.11-16.38,49.84-17.33c1.78-1-41.88,6.21-52.49,7.19
				c47.51-67.83,121.56-17.74,121.56-17.74S1591.73,701.26,1523.4,656.33z"/>
			
				<radialGradient id="SVGID_5_" cx="1776.8414" cy="893.5311" r="107.6974" gradientTransform="matrix(0.8708 -0.4917 0.4917 0.8708 -571.9324 947.7728)" gradientUnits="userSpaceOnUse">
				<stop  offset="0" style="stop-color:#0E9C00"/>
				<stop  offset="0.9956" style="stop-color:#75D800"/>
			</radialGradient>
			<path class="st4" d="M1436.55,846.95c6.92,2.62,33.73,14.43,35.11,14.75c1.44,0.32-25.47-16.88-31.64-21.47
				c58.24-13.48,73.8,49.15,73.8,49.15S1451.54,904.05,1436.55,846.95z"/>
			
				<radialGradient id="SVGID_6_" cx="1784.7883" cy="892.4118" r="134.0291" gradientTransform="matrix(0.8708 -0.4917 0.4917 0.8708 -571.9324 947.7728)" gradientUnits="userSpaceOnUse">
				<stop  offset="0" style="stop-color:#0E9C00"/>
				<stop  offset="0.9956" style="stop-color:#75D800"/>
			</radialGradient>
			<path class="st5" d="M1409.02,859.01c2.4,9.96,9.8,49.87,10.52,51.7c0.76,1.9-0.56-42.33-0.12-52.98
				c60.88,56.14,1.34,122.84,1.34,122.84S1355.37,920.73,1409.02,859.01z"/>
			
				<radialGradient id="SVGID_7_" cx="1776.8414" cy="893.5311" r="107.6974" gradientTransform="matrix(0.8708 -0.4917 0.4917 0.8708 -571.9324 947.7728)" gradientUnits="userSpaceOnUse">
				<stop  offset="0" style="stop-color:#0E9C00"/>
				<stop  offset="0.9956" style="stop-color:#75D800"/>
			</radialGradient>
			<path class="st6" d="M1394.68,852.64c-4.75,3.84-24.33,18.03-25.13,18.89c-0.83,0.89,22.63-11.13,28.48-13.61
				c-14.64,47.11-65.75,32.14-65.75,32.14S1347.75,839.55,1394.68,852.64z"/>
			
				<linearGradient id="SVGID_8_" gradientUnits="userSpaceOnUse" x1="2088.9312" y1="873.8082" x2="1929.0968" y2="808.8895" gradientTransform="matrix(0.8708 -0.4917 0.4917 0.8708 -571.9324 947.7728)">
				<stop  offset="0" style="stop-color:#0E9C00"/>
				<stop  offset="0.9956" style="stop-color:#75D800"/>
			</linearGradient>
			<path class="st7" d="M1540.57,682.98c6.03,1.62,29.52,9.3,30.71,9.45c1.24,0.15-22.8-12.04-28.36-15.39
				c47.77-16.18,66.07,35.1,66.07,35.1S1557.92,729.67,1540.57,682.98z"/>
			
				<linearGradient id="SVGID_9_" gradientUnits="userSpaceOnUse" x1="2090.3767" y1="870.249" x2="1930.5425" y2="805.3303" gradientTransform="matrix(0.8708 -0.4917 0.4917 0.8708 -571.9324 947.7728)">
				<stop  offset="0" style="stop-color:#0E9C00"/>
				<stop  offset="0.9956" style="stop-color:#75D800"/>
			</linearGradient>
			<path class="st8" d="M1608.65,673.62c4.79,1.29,23.47,7.4,24.42,7.51c0.98,0.12-18.13-9.58-22.55-12.23
				c37.98-12.86,52.53,27.91,52.53,27.91S1622.45,710.74,1608.65,673.62z"/>
			
				<linearGradient id="SVGID_10_" gradientUnits="userSpaceOnUse" x1="1917.891" y1="821.6431" x2="1957.9669" y2="821.6431" gradientTransform="matrix(0.8708 -0.4917 0.4917 0.8708 -571.9324 947.7728)">
				<stop  offset="0" style="stop-color:#0E9C00"/>
				<stop  offset="0.9956" style="stop-color:#75D800"/>
			</linearGradient>
			<path class="st9" d="M1527.76,689.29c-1.04,3.82-5.94,18.72-6.04,19.48c-0.1,0.78,7.68-14.45,9.81-17.98
				c10.2,30.34-22.37,41.88-22.37,41.88S1498.11,700.24,1527.76,689.29z"/>
			
				<linearGradient id="SVGID_11_" gradientUnits="userSpaceOnUse" x1="1944.0608" y1="896.7653" x2="2021.6274" y2="896.7653" gradientTransform="matrix(0.8708 -0.4917 0.4917 0.8708 -571.9324 947.7728)">
				<stop  offset="0" style="stop-color:#0E9C00"/>
				<stop  offset="0.9956" style="stop-color:#75D800"/>
			</linearGradient>
			<path class="st10" d="M1551.45,754.35c7.68-0.68,38.19-1.77,39.63-2.1c1.5-0.35-31.56-4.27-39.43-5.78
				c48.52-39.07,91.54,12.61,91.54,12.61S1591.42,801.11,1551.45,754.35z"/>
			
				<radialGradient id="SVGID_12_" cx="1776.8414" cy="893.5311" r="107.6974" gradientTransform="matrix(0.8708 -0.4917 0.4917 0.8708 -571.9324 947.7728)" gradientUnits="userSpaceOnUse">
				<stop  offset="0" style="stop-color:#0E9C00"/>
				<stop  offset="0.9956" style="stop-color:#75D800"/>
			</radialGradient>
			<path class="st11" d="M1436.72,833.37c3.54-4.55,18.47-21.79,19.03-22.75c0.57-1-18.4,15.09-23.23,18.63
				c3.32-46.43,53.5-43.66,53.5-43.66S1482.65,835.3,1436.72,833.37z"/>
			
				<linearGradient id="SVGID_13_" gradientUnits="userSpaceOnUse" x1="1916.8745" y1="910.9441" x2="1943.7952" y2="910.9441" gradientTransform="matrix(0.8708 -0.4917 0.4917 0.8708 -571.9324 947.7728)">
				<stop  offset="0" style="stop-color:#0E9C00"/>
				<stop  offset="0.9956" style="stop-color:#75D800"/>
			</linearGradient>
			<path class="st12" d="M1544.89,767.38c2.33,3.96,10.72,20.1,11.27,20.79c0.57,0.71-5.77-18.07-6.97-22.69
				c33.43,16.11,16.62,52.48,16.62,52.48S1529.96,800.84,1544.89,767.38z"/>
		</g>
		<g>
			<g>
				<path class="st13" d="M1992.9,1486.12c0,0-215.14,176.67-575.87-95.58c303.45,219,512.78,105.85,555.95,77.7
					C1979.96,1473.87,1986.6,1479.82,1992.9,1486.12z"/>
				<path class="st14" d="M2017.63,1448.51c-35.05-23.55-188.95-116.2-394.63-82.84
					C1628.17,1363.86,1807.37,1303.41,2017.63,1448.51z"/>
				<linearGradient id="SVGID_14_" gradientUnits="userSpaceOnUse" x1="1638.4485" y1="1519.8187" x2="1643.9226" y2="1257.7446">
					<stop  offset="0" style="stop-color:#0E9C00"/>
					<stop  offset="0.3733" style="stop-color:#32B100"/>
					<stop  offset="0.9956" style="stop-color:#75D800"/>
				</linearGradient>
				<path class="st15" d="M2025.19,1453.8c-0.29-0.2-0.55-0.4-0.83-0.6c-0.72-0.55-1.93-1.41-3.62-2.56
					c-1.04-0.69-2.07-1.41-3.11-2.13c-210.26-145.1-389.46-84.65-394.63-82.84c-0.09,0.03-0.11,0.03-0.11,0.03
					s225.24,1.32,350.09,102.54c-43.16,28.15-252.5,141.3-555.95-77.7c-50.03-37.75-102.86-84.14-158.3-140.84
					c0,0,129.22,71.94,342.12,32.32C1600.85,1282.02,1863.67,1195.38,2025.19,1453.8z"/>
			</g>
			<path class="st16" d="M1233.14,1214.91l-1.93,1.7c-2.07-0.75-4.14-1.5-6.18-2.27
				C1227.73,1214.53,1230.43,1214.73,1233.14,1214.91z"/>
			<g>
				<path class="st17" d="M2054.63,1390.54c-227.59-242.29-442.57-150.82-442.57-150.82c-36.12,8.66-71.02,21.91-108.12,24.56
					c-42.18,3.05-84.83-1.7-126.32-9.12c-38.7-6.93-77.49-16.1-115.19-27.98c-10.5-3.34-20.93-6.84-31.23-10.58l1.93-1.7
					c54.49,3.59,108.95,1.29,163.47-0.11c1.29-0.06,2.56-0.09,3.85-0.12c15.59-0.37,30.51-1.96,44.97-4.4
					c56.91-9.6,107-32.9,163.9-52.39c56.19-19.24,116.05-27.72,175.38-24.79c39.62,1.96,75.19,5.64,111.94-11.5
					c36.4-16.99,75.57-26.63,115.68-28.7c29.39-1.52,59.03,0.75,87.85,6.7c2.04,0.4,13.57,2.16,22.57,4.37
					c5.95,1.47,10.81,3.16,11.19,4.77C2160.39,1315.89,2054.63,1390.54,2054.63,1390.54z"/>
				<path class="st18" d="M2053.17,1436.06c-83.68-147.54-239.87-223.08-408.23-202.49c-11.13,1.38-22.05,3.57-32.87,6.15
					c0,0,214.97-91.47,442.57,150.82c0,0,105.76-74.65,79.31-281.8c1.01,4.46,1.96,8.86,2.79,13.23c1.58,8.14,2.88,16.16,3.91,24.07
					C2163.67,1322.94,2053.17,1436.06,2053.17,1436.06z"/>
			</g>
			<path class="st19" d="M2025.19,1453.8c-0.29-0.2-0.55-0.4-0.83-0.6c-1.21-0.83-2.42-1.7-3.62-2.56
				c-1.04-0.69-2.07-1.41-3.11-2.13"/>
			<path class="st19" d="M1623,1365.67c-0.09,0.03-0.11,0.03-0.11,0.03"/>
			<g>
				<polygon class="st20" points="1928.32,990.04 2009.69,938.49 2009.69,984.17 1969,1041.82 1912.2,1041.82 				"/>
				<path class="st21" d="M2122.75,1083.84c-9-2.21-20.53-3.97-22.57-4.37c-28.81-5.95-58.46-8.22-87.85-6.7
					c-40.11,2.07-79.28,11.7-115.68,28.7c-36.75,17.14-72.32,13.46-111.94,11.5c-59.32-2.93-119.19,5.55-175.38,24.79
					c-56.91,19.5-107,42.79-163.9,52.39l-48.83,4.51c-51.27,1.32-102.51,3.45-153.75,0.69c-3.25-0.17-6.47-0.37-9.72-0.58
					l37.47-32.9l118.58-129.63l49.63,19.32l113.06-136.53l67.57,22.06l166.86-165.46l1.73,2.65L1950.4,1024l59.29-85.52
					L2122.75,1083.84z"/>
				<path class="st20" d="M1788.05,774.3l-49.83,221.9l-35.25,30.19v33.04l-63.86-24.21l15.41,35.22h-79.31l-68.26,52.88
					l-97.33,28.61l-166.75,43.42c-3.25-0.17-6.47-0.37-9.72-0.58l37.47-32.9l118.58-129.63l49.63,19.32l113.06-136.53l67.57,22.06
					l166.86-165.46L1788.05,774.3z"/>
				<polygon class="st21" points="1551.88,915.05 1605.32,976.48 1619.46,937.11 				"/>
				<polygon class="st21" points="1389.19,1032.26 1428.14,1056.74 1438.82,1051.58 				"/>
			</g>
		</g>
		<path class="st22" d="M1233.14,1161.48l-10.61,9.78c-32.03-100.7-25.13-213.68,28.15-314.46c1.81-3.45,3.68-6.87,5.61-10.24
			C1166.11,1022.28,1233.14,1161.48,1233.14,1161.48z"/>
	</g>
	<g>
		<g>
			<path class="st23" d="M1118.9,1723.49h-52.98l-8.49,25.08h-36.2l51.36-141.96h40.04l51.37,141.96h-36.6L1118.9,1723.49z
				 M1110,1696.79l-17.59-51.97l-17.39,51.97H1110z"/>
			<path class="st23" d="M1282.09,1615.5c11.19,5.93,19.85,14.26,25.99,24.97c6.13,10.72,9.2,23.09,9.2,37.11
				c0,13.89-3.07,26.22-9.2,37.01c-6.14,10.79-14.83,19.14-26.09,25.08c-11.26,5.93-24.3,8.9-39.13,8.9h-53.19V1606.6h53.19
				C1257.83,1606.6,1270.9,1609.57,1282.09,1615.5z M1271.17,1707.92c7.28-7.14,10.92-17.25,10.92-30.33
				c0-13.08-3.64-23.26-10.92-30.54c-7.28-7.28-17.46-10.92-30.54-10.92h-16.38v82.51h16.38
				C1253.71,1718.63,1263.89,1715.06,1271.17,1707.92z"/>
			<path class="st23" d="M1377.24,1740.68c-11.12-6.2-19.95-14.86-26.49-25.99c-6.54-11.12-9.81-23.63-9.81-37.51
				c0-13.88,3.27-26.36,9.81-37.41c6.54-11.05,15.37-19.68,26.49-25.88c11.12-6.2,23.36-9.3,36.7-9.3c13.35,0,25.58,3.1,36.7,9.3
				c11.12,6.2,19.88,14.83,26.29,25.88c6.4,11.06,9.61,23.53,9.61,37.41c0,13.89-3.24,26.39-9.71,37.51
				c-6.47,11.12-15.24,19.79-26.29,25.99c-11.06,6.2-23.26,9.3-36.6,9.3C1400.59,1749.98,1388.36,1746.88,1377.24,1740.68z
				 M1441.14,1707.11c6.81-7.55,10.21-17.52,10.21-29.93c0-12.54-3.41-22.55-10.21-30.03c-6.81-7.48-15.88-11.22-27.2-11.22
				c-11.46,0-20.6,3.71-27.4,11.12c-6.81,7.42-10.21,17.46-10.21,30.13c0,12.54,3.4,22.55,10.21,30.03
				c6.81,7.48,15.94,11.22,27.4,11.22C1425.27,1718.43,1434.33,1714.66,1441.14,1707.11z"/>
			<path class="st23" d="M1617.99,1606.6v27.71h-37.61v114.26h-34.58v-114.26h-37.61v-27.71H1617.99z"/>
			<path class="st23" d="M1680.07,1634.31v28.72h46.31v26.69h-46.31v31.14h52.38v27.71h-86.96V1606.6h86.96v27.71H1680.07z"/>
			<path class="st23" d="M1851.95,1606.6v84.93c0,8.49,2.09,15.03,6.27,19.62c4.18,4.58,10.31,6.88,18.4,6.88
				c8.09,0,14.29-2.29,18.61-6.88c4.31-4.58,6.47-11.12,6.47-19.62v-84.93h34.58v84.73c0,12.67-2.7,23.39-8.09,32.15
				c-5.39,8.77-12.64,15.37-21.74,19.82c-9.1,4.45-19.25,6.67-30.43,6.67c-11.19,0-21.2-2.19-30.03-6.57
				c-8.83-4.38-15.81-10.99-20.93-19.82c-5.13-8.83-7.69-19.58-7.69-32.25v-84.73H1851.95z"/>
			<path class="st23" d="M2131.42,1606.6v141.96h-34.58v-85.14l-31.75,85.14h-27.91l-31.95-85.34v85.34h-34.58V1606.6h40.85
				l39.84,98.28l39.43-98.28H2131.42z"/>
			<path class="st23" d="M2254.78,1723.49h-52.98l-8.49,25.08h-36.2l51.37-141.96h40.04l51.36,141.96h-36.6L2254.78,1723.49z
				 M2245.88,1696.79l-17.59-51.97l-17.39,51.97H2245.88z"/>
		</g>
	</g>
	<g>
		<path class="st14" d="M1048.95,1889.99h-34.99l-5.79,16.74h-18.5l31.59-87.98h20.52l31.59,87.98h-18.63L1048.95,1889.99z
			 M1045.17,1800.62l-28.95,13.22v-12.59l28.95-14.98V1800.62z M1044.16,1875.89l-12.71-36.75l-12.71,36.75H1044.16z"/>
		<path class="st14" d="M1293.25,1906.73l-19.38-34.24h-8.31v34.24h-17.62v-87.86h32.98c6.8,0,12.59,1.2,17.37,3.59
			c4.78,2.39,8.37,5.62,10.76,9.69c2.39,4.07,3.59,8.62,3.59,13.66c0,5.79-1.68,11.01-5.03,15.67c-3.36,4.66-8.35,7.87-14.98,9.63
			l21.02,35.62H1293.25z M1265.56,1859.27h14.73c4.78,0,8.35-1.15,10.7-3.46c2.35-2.31,3.52-5.52,3.52-9.63
			c0-4.03-1.18-7.15-3.52-9.38c-2.35-2.22-5.92-3.33-10.7-3.33h-14.73V1859.27z"/>
		<path class="st14" d="M1570.29,1818.87l-32.22,87.86h-21.4l-32.22-87.86h18.88l24.17,69.86l24.04-69.86H1570.29z"/>
		<path class="st14" d="M1761.73,1901.82c-6.88-3.86-12.33-9.21-16.36-16.05c-4.03-6.84-6.04-14.58-6.04-23.22
			c0-8.56,2.01-16.26,6.04-23.1c4.03-6.84,9.48-12.19,16.36-16.05c6.88-3.86,14.43-5.79,22.66-5.79c8.31,0,15.88,1.93,22.72,5.79
			c6.84,3.86,12.25,9.21,16.24,16.05c3.98,6.84,5.98,14.54,5.98,23.1c0,8.64-1.99,16.38-5.98,23.22
			c-3.99,6.84-9.42,12.19-16.3,16.05c-6.88,3.86-14.43,5.79-22.66,5.79C1776.16,1907.61,1768.61,1905.68,1761.73,1901.82z
			 M1798.36,1888.29c4.03-2.39,7.17-5.81,9.44-10.26c2.27-4.45,3.4-9.61,3.4-15.48c0-5.87-1.13-11.01-3.4-15.42
			s-5.41-7.78-9.44-10.13c-4.03-2.35-8.68-3.52-13.97-3.52c-5.29,0-9.96,1.18-14.03,3.52c-4.07,2.35-7.24,5.73-9.5,10.13
			s-3.4,9.55-3.4,15.42c0,5.88,1.13,11.04,3.4,15.48c2.27,4.45,5.43,7.87,9.5,10.26c4.07,2.39,8.75,3.59,14.03,3.59
			C1789.68,1891.87,1794.33,1890.68,1798.36,1888.29z"/>
		<path class="st14" d="M2050.47,1906.73l-19.38-34.24h-8.31v34.24h-17.62v-87.86h32.98c6.8,0,12.59,1.2,17.37,3.59
			s8.37,5.62,10.76,9.69c2.39,4.07,3.59,8.62,3.59,13.66c0,5.79-1.68,11.01-5.03,15.67c-3.36,4.66-8.35,7.87-14.98,9.63l21.02,35.62
			H2050.47z M2022.78,1859.27h14.73c4.78,0,8.35-1.15,10.7-3.46c2.35-2.31,3.52-5.52,3.52-9.63c0-4.03-1.18-7.15-3.52-9.38
			c-2.35-2.22-5.92-3.33-10.7-3.33h-14.73V1859.27z"/>
		<path class="st14" d="M2266.21,1833.09v22.03h29.58v13.97h-29.58v23.29h33.35v14.35h-50.98v-87.98h50.98v14.35H2266.21z"/>
	</g>
</g>
</svg>
